# xmcd
#
# Track frame offsets:
#	150
#	12152
#	32038
#	45236
#	73059
#	94949
#	107727
#	128462
#	163273
#	185669
#	205925
#	222524
#	239973
#	253425
#	275457
#	306277
#	336241
# Disc length: 4675 seconds
# Revision: 1
# Processed by: cddbd v1.5.2PL0 Copyright (c) Steve Scherf et al.
#
# Submitted via: libkcddb 0.31
#
DISCID=08124111
DTITLE=Gary Moore - Still Got The Blues And Moore
DYEAR=2012
DGENRE=Blues
TTITLE0=Moving On
TTITLE1=Oh Pretty Woman
TTITLE2=Walking By Myself
TTITLE3=Still Got The Blues
TTITLE4=Texas Strut
TTITLE5=Too Tired
TTITLE6=King Of The Blues
TTITLE7=As The Years Go Passing By
TTITLE8=Midnight Blues
TTITLE9=That Kind Of Woman
TTITLE10=All Your Love
TTITLE11=Stop Messin' Around
TTITLE12=Need Your Love So Bad
TTITLE13=The Sky Is Crying
TTITLE14=Parisienne Walkways -Live-
TTITLE15=Story Of The Blues
TTITLE16=Johnny Boy
EXTD=home brewn CD
EXTT0=
EXTT1=
EXTT2=
EXTT3=
EXTT4=
EXTT5=
EXTT6=
EXTT7=
EXTT8=
EXTT9=
EXTT10=
EXTT11=
EXTT12=
EXTT13=
EXTT14=
EXTT15=
EXTT16=
PLAYORDER=
